<svg width="2231" height="720" viewBox="0 0 2231 720" fill="none" xmlns="http://www.w3.org/2000/svg">
<g clip-path="url(#clip0_7_1602)">
<g clip-path="url(#clip1_7_1602)">
<path d="M1303.59 152.42H1283.39L1226.05 305.61H1257.93L1268.97 272.89H1325.63L1336.73 305.61H1368.5L1311.06 152.43H1303.59V152.42ZM1277.21 248.48L1297.24 189.13L1317.36 248.48H1277.21Z" fill="#FFFAF3"/>
<path d="M1409.03 225.3C1409.61 224.25 1410.23 223.23 1410.92 222.28C1413.02 219.4 1415.62 217.18 1418.71 215.6C1421.79 214.02 1425.37 213.23 1429.44 213.23C1433.51 213.23 1436.93 213.81 1439.7 214.97C1442.47 216.13 1444.57 218.13 1446.01 220.97C1447.45 223.81 1448.17 227.72 1448.17 232.7V305.61H1477.21V232.81C1477.21 222.22 1475.7 213.78 1472.69 207.51C1469.67 201.23 1465.48 196.69 1460.12 193.89C1454.75 191.09 1448.42 189.68 1441.13 189.68C1432.15 189.68 1424.28 191.94 1417.51 196.47C1414.03 198.8 1410.95 201.63 1408.27 204.95L1407.36 191.79H1380.22V305.62H1409.05V225.31L1409.03 225.3Z" fill="#FFFAF3"/>
<path d="M1517.83 300.19C1524.49 305.21 1532.49 307.71 1541.82 307.71C1551.15 307.71 1558.55 305.25 1564.65 300.34C1567.1 298.37 1569.33 296.1 1571.36 293.55L1572.75 305.6H1598.95V144H1569.91V202.09C1568.29 200.23 1566.56 198.53 1564.7 197.02C1558.63 192.11 1551.08 189.66 1542.03 189.66C1532.98 189.66 1524.49 192.1 1517.83 196.97C1511.17 201.85 1506.08 208.65 1502.58 217.38C1499.07 226.11 1497.32 236.26 1497.32 247.84V250.05C1497.32 261.06 1499.07 270.92 1502.58 279.61C1506.09 288.31 1511.17 295.16 1517.83 300.18V300.19ZM1526.25 247.85C1526.25 241.33 1527 235.45 1528.51 230.23C1530.02 225.01 1532.47 220.87 1535.87 217.82C1539.27 214.77 1543.74 213.24 1549.28 213.24C1553.28 213.24 1556.75 213.92 1559.7 215.29C1562.65 216.66 1565.12 218.6 1567.12 221.13C1568.17 222.46 1569.1 223.94 1569.91 225.56V271.6C1568.05 275.36 1565.53 278.36 1562.33 280.58C1558.89 282.97 1554.47 284.16 1549.07 284.16C1543.67 284.16 1539.07 282.63 1535.71 279.58C1532.34 276.53 1529.92 272.43 1528.45 267.27C1526.98 262.11 1526.24 256.38 1526.24 250.07V247.86L1526.25 247.85Z" fill="#FFFAF3"/>
<path d="M1653.36 230.12C1653.54 229.71 1653.73 229.3 1653.94 228.91C1655.8 225.33 1658.59 222.6 1662.3 220.7C1666.02 218.81 1670.68 217.86 1676.29 217.86C1677.97 217.86 1679.8 217.95 1681.76 218.12C1683.72 218.3 1685.51 218.49 1687.13 218.7L1687.45 191.03C1686.4 190.61 1684.96 190.28 1683.14 190.03C1681.32 189.78 1679.63 189.66 1678.09 189.66C1670.79 189.66 1664.68 191.87 1659.73 196.29C1657 198.73 1654.65 201.69 1652.65 205.13L1651.78 191.77H1624.43V305.6H1653.36V230.11V230.12Z" fill="#FFFAF3"/>
<path d="M1750.07 236.06C1732.96 236.06 1719.93 239.32 1710.99 245.85C1702.05 252.37 1697.58 261.63 1697.58 273.62C1697.58 280.21 1699.28 286.09 1702.68 291.24C1706.08 296.4 1710.71 300.43 1716.57 303.34C1722.43 306.25 1729 307.71 1736.3 307.71C1741.98 307.71 1746.98 306.83 1751.29 305.08C1755.6 303.33 1759.29 301.08 1762.34 298.35C1763.48 297.33 1764.52 296.27 1765.5 295.19C1766.2 299.34 1767.19 302.82 1768.49 305.61H1797.84V303.82C1796.37 300.87 1795.24 297.4 1794.47 293.4C1793.7 289.4 1793.31 284.39 1793.31 278.36V229.44C1793.31 220.6 1791.36 213.24 1787.47 207.35C1783.58 201.46 1778.21 197.04 1771.37 194.09C1764.53 191.14 1756.76 189.67 1748.07 189.67C1738.39 189.67 1729.96 191.32 1722.77 194.61C1715.58 197.91 1710.02 202.27 1706.1 207.71C1702.17 213.15 1700.21 219.09 1700.21 225.54H1729.14C1729.14 222.59 1729.84 220.07 1731.24 217.96C1732.64 215.86 1734.66 214.21 1737.29 213.02C1739.92 211.83 1742.99 211.23 1746.5 211.23C1752.6 211.23 1757.09 212.86 1759.97 216.12C1762.85 219.38 1764.28 223.75 1764.28 229.22V236.06H1750.08H1750.07ZM1754.8 282.46C1751.29 284.35 1747.15 285.3 1742.39 285.3C1737.63 285.3 1733.53 283.97 1730.76 281.3C1727.99 278.63 1726.6 275.3 1726.6 271.3C1726.6 266.04 1728.61 261.73 1732.65 258.36C1736.68 254.99 1742.94 253.31 1751.43 253.31H1764.26V273.4C1763.89 274.09 1763.45 274.79 1762.94 275.51C1761.01 278.25 1758.29 280.56 1754.79 282.45L1754.8 282.46Z" fill="#FFFAF3"/>
<path d="M1834.47 300.19C1841.13 305.21 1849.13 307.71 1858.46 307.71C1867.79 307.71 1875.19 305.25 1881.29 300.34C1883.74 298.37 1885.97 296.1 1888 293.55L1889.39 305.6H1915.59V144H1886.55V202.09C1884.93 200.23 1883.2 198.53 1881.34 197.02C1875.27 192.11 1867.72 189.66 1858.67 189.66C1849.62 189.66 1841.13 192.1 1834.47 196.97C1827.81 201.85 1822.72 208.65 1819.22 217.38C1815.71 226.11 1813.96 236.26 1813.96 247.84V250.05C1813.96 261.06 1815.71 270.92 1819.22 279.61C1822.73 288.31 1827.81 295.16 1834.47 300.18V300.19ZM1842.89 247.85C1842.89 241.33 1843.64 235.45 1845.15 230.23C1846.66 225.01 1849.11 220.87 1852.51 217.82C1855.91 214.77 1860.38 213.24 1865.92 213.24C1869.92 213.24 1873.39 213.92 1876.34 215.29C1879.29 216.66 1881.76 218.6 1883.76 221.13C1884.81 222.46 1885.74 223.94 1886.55 225.56V271.6C1884.69 275.36 1882.17 278.36 1878.97 280.58C1875.53 282.97 1871.11 284.16 1865.71 284.16C1860.31 284.16 1855.71 282.63 1852.35 279.58C1848.98 276.53 1846.56 272.43 1845.09 267.27C1843.62 262.11 1842.88 256.38 1842.88 250.07V247.86L1842.89 247.85Z" fill="#FFFAF3"/>
<path d="M1992.72 307.71C2003.94 307.71 2013.22 305.55 2020.55 301.24C2027.88 296.93 2033.33 292.14 2036.91 286.88L2022.39 271.2C2019.02 275.62 2014.97 278.92 2010.24 281.09C2005.51 283.26 2000.26 284.35 1994.51 284.35C1988.76 284.35 1983.39 282.98 1979.04 280.25C1974.69 277.51 1971.39 273.76 1969.15 268.99C1967.58 265.65 1966.57 261.97 1966.1 257.94H2039.22V245.63C2039.22 234.48 2037.34 224.71 2033.59 216.33C2029.84 207.95 2024.3 201.41 2016.97 196.71C2009.64 192.01 2000.47 189.66 1989.46 189.66C1978.45 189.66 1969.82 192.13 1961.9 197.08C1953.97 202.03 1947.82 208.92 1943.44 217.75C1939.06 226.59 1936.86 236.83 1936.86 248.47V252.57C1936.86 262.81 1939.09 272.09 1943.54 280.4C1947.99 288.71 1954.41 295.34 1962.79 300.28C1971.17 305.23 1981.15 307.7 1992.72 307.7V307.71ZM1976.04 217.49C1979.51 214.44 1983.95 212.91 1989.35 212.91C1994.33 212.91 1998.36 213.93 2001.45 215.96C2004.54 218 2006.82 220.73 2008.29 224.17C2009.76 227.61 2010.57 231.4 2010.71 235.53V237.84H1966.54C1966.96 235.05 1967.54 232.43 1968.32 230C1970 224.71 1972.58 220.53 1976.05 217.48L1976.04 217.49Z" fill="#FFFAF3"/>
<path d="M1236.73 454.16C1234.24 458.79 1233 464.19 1233 470.36C1233 478.78 1235.01 486.26 1239.05 492.82C1243.08 499.38 1248.85 504.52 1256.36 508.23C1263.86 511.95 1272.74 513.81 1282.98 513.81C1291.61 513.81 1299.62 512.5 1307.02 509.86C1312.28 507.99 1317.3 505.41 1322.08 502.13L1330.22 511.59H1363.26L1340.51 484.99C1344.09 480.29 1346.9 475.11 1348.9 469.4C1352.37 459.51 1354.11 448.74 1354.11 437.1H1329.28C1329.28 445.03 1328.02 452.25 1325.49 458.77C1324.72 460.75 1323.87 462.63 1322.94 464.45L1295.59 432.48L1305.6 425.32C1309.67 422.37 1313.23 419.2 1316.28 415.8C1319.33 412.4 1321.73 408.68 1323.49 404.65C1325.24 400.62 1326.12 396.22 1326.12 391.45C1326.12 385.14 1324.54 379.32 1321.39 373.99C1318.23 368.66 1313.74 364.36 1307.92 361.1C1302.1 357.84 1295.26 356.21 1287.4 356.21C1279.05 356.21 1271.78 357.86 1265.57 361.15C1259.36 364.45 1254.56 369.08 1251.16 375.04C1247.76 381 1246.06 388.02 1246.06 396.08C1246.06 404.14 1248.41 411.48 1253.11 418.7C1255.43 422.26 1258.1 426.07 1261.12 430.11C1255.88 433.87 1251.21 437.59 1247.11 441.26C1242.69 445.22 1239.24 449.52 1236.75 454.15L1236.73 454.16ZM1306.13 483.6C1304.43 484.73 1302.68 485.74 1300.85 486.62C1295.52 489.18 1290.01 490.46 1284.33 490.46C1279.7 490.46 1275.72 489.53 1272.39 487.67C1269.06 485.81 1266.5 483.23 1264.71 479.94C1262.92 476.64 1262.03 472.93 1262.03 468.79C1262.03 466.97 1262.26 465 1262.71 462.9C1263.17 460.8 1264.15 458.57 1265.66 456.22C1267.17 453.87 1269.39 451.5 1272.34 449.12L1274.9 447.29L1306.13 483.61V483.6ZM1275.97 384.3C1278.46 381.14 1282.23 379.57 1287.28 379.57C1291.91 379.57 1295.49 380.99 1298.01 383.83C1300.53 386.67 1301.8 389.77 1301.8 393.14C1301.8 396.51 1300.99 399.63 1299.38 402.29C1297.77 404.96 1294.79 407.73 1290.44 410.6L1282.04 416.17C1280.46 414.13 1279 412.17 1277.65 410.29C1274.04 405.24 1272.23 400.37 1272.23 395.67C1272.23 391.25 1273.48 387.46 1275.97 384.31V384.3Z" fill="#FFFAF3"/>
<path d="M1564.86 511.61H1595.06V358.42H1581.8H1569.39H1555.71L1514.99 471.42L1474.17 358.42H1460.5H1448.19H1434.93V511.61H1465.02V467.21L1462.06 396.12L1504.58 511.61H1525.3L1567.81 396.36L1564.86 467.21V511.61Z" fill="#FFFAF3"/>
<path d="M1713.86 484.36V435.44C1713.86 426.6 1711.91 419.24 1708.02 413.35C1704.13 407.46 1698.76 403.04 1691.92 400.09C1685.08 397.14 1677.31 395.67 1668.62 395.67C1658.94 395.67 1650.51 397.32 1643.32 400.61C1636.13 403.91 1630.57 408.27 1626.65 413.71C1622.72 419.15 1620.76 425.09 1620.76 431.54H1649.69C1649.69 428.59 1650.39 426.07 1651.79 423.96C1653.19 421.86 1655.21 420.21 1657.84 419.02C1660.47 417.83 1663.54 417.23 1667.05 417.23C1673.15 417.23 1677.64 418.86 1680.52 422.12C1683.4 425.38 1684.83 429.75 1684.83 435.22V442.06H1670.63C1653.52 442.06 1640.49 445.32 1631.55 451.85C1622.61 458.37 1618.14 467.63 1618.14 479.62C1618.14 486.21 1619.84 492.09 1623.24 497.24C1626.64 502.4 1631.27 506.43 1637.13 509.34C1642.99 512.25 1649.56 513.71 1656.86 513.71C1662.54 513.71 1667.54 512.83 1671.85 511.08C1676.16 509.33 1679.85 507.08 1682.9 504.35C1684.04 503.33 1685.08 502.27 1686.06 501.19C1686.76 505.34 1687.75 508.82 1689.05 511.61H1718.4V509.82C1716.93 506.87 1715.8 503.4 1715.03 499.4C1714.26 495.4 1713.87 490.39 1713.87 484.36H1713.86ZM1675.35 488.46C1671.84 490.35 1667.7 491.3 1662.94 491.3C1658.18 491.3 1654.08 489.97 1651.31 487.3C1648.54 484.63 1647.15 481.3 1647.15 477.3C1647.15 472.04 1649.16 467.73 1653.2 464.36C1657.23 460.99 1663.49 459.31 1671.98 459.31H1684.81V479.4C1684.44 480.09 1684 480.79 1683.49 481.51C1681.56 484.25 1678.84 486.56 1675.34 488.45L1675.35 488.46Z" fill="#FFFAF3"/>
<path d="M1767.22 357.37C1764.27 354.49 1760.28 353.06 1755.23 353.06C1750.18 353.06 1746.3 354.5 1743.39 357.37C1740.48 360.25 1739.02 363.86 1739.02 368.21C1739.02 372.56 1740.47 376.07 1743.39 378.94C1746.3 381.82 1750.24 383.25 1755.23 383.25C1760.22 383.25 1764.28 381.81 1767.22 378.94C1770.17 376.06 1771.64 372.49 1771.64 368.21C1771.64 363.93 1770.17 360.25 1767.22 357.37Z" fill="#FFFAF3"/>
<path d="M1769.85 397.77H1740.81V511.6H1769.85V397.77Z" fill="#FFFAF3"/>
<path d="M1856.93 504.35C1858.07 503.33 1859.11 502.27 1860.09 501.19C1860.79 505.34 1861.78 508.82 1863.08 511.61H1892.43V509.82C1890.96 506.87 1889.83 503.4 1889.06 499.4C1888.29 495.4 1887.9 490.39 1887.9 484.36V435.44C1887.9 426.6 1885.95 419.24 1882.06 413.35C1878.17 407.46 1872.8 403.04 1865.96 400.09C1859.12 397.14 1851.35 395.67 1842.66 395.67C1832.98 395.67 1824.55 397.32 1817.36 400.61C1810.17 403.91 1804.61 408.27 1800.69 413.71C1796.76 419.15 1794.8 425.09 1794.8 431.54H1823.73C1823.73 428.59 1824.43 426.07 1825.83 423.96C1827.23 421.86 1829.25 420.21 1831.88 419.02C1834.51 417.83 1837.58 417.23 1841.09 417.23C1847.19 417.23 1851.68 418.86 1854.56 422.12C1857.44 425.38 1858.87 429.75 1858.87 435.22V442.06H1844.67C1827.56 442.06 1814.53 445.32 1805.59 451.85C1796.65 458.37 1792.18 467.63 1792.18 479.62C1792.18 486.21 1793.88 492.09 1797.28 497.24C1800.68 502.4 1805.31 506.43 1811.17 509.34C1817.03 512.25 1823.6 513.71 1830.9 513.71C1836.58 513.71 1841.58 512.83 1845.89 511.08C1850.2 509.33 1853.89 507.08 1856.94 504.35H1856.93ZM1825.37 487.31C1822.6 484.64 1821.21 481.31 1821.21 477.31C1821.21 472.05 1823.22 467.74 1827.26 464.37C1831.29 461 1837.55 459.32 1846.04 459.32H1858.87V479.41C1858.5 480.1 1858.06 480.8 1857.55 481.52C1855.62 484.26 1852.9 486.57 1849.4 488.46C1845.89 490.35 1841.75 491.3 1836.99 491.3C1832.23 491.3 1828.13 489.97 1825.36 487.3L1825.37 487.31Z" fill="#FFFAF3"/>
<path d="M1303.59 564.42H1283.39L1226.05 717.61H1257.93L1268.97 684.89H1325.63L1336.73 717.61H1368.5L1311.06 564.43H1303.59V564.42ZM1277.21 660.48L1297.24 601.13L1317.36 660.48H1277.21Z" fill="#FFFAF3"/>
<path d="M1450.48 614.1C1448.86 612.24 1447.13 610.54 1445.27 609.03C1439.2 604.12 1431.65 601.67 1422.6 601.67C1413.55 601.67 1405.06 604.11 1398.4 608.98C1391.74 613.86 1386.65 620.66 1383.15 629.39C1379.64 638.12 1377.89 648.27 1377.89 659.85V662.06C1377.89 673.07 1379.64 682.93 1383.15 691.62C1386.66 700.32 1391.74 707.17 1398.4 712.19C1405.06 717.21 1413.06 719.71 1422.39 719.71C1431.72 719.71 1439.12 717.25 1445.22 712.34C1447.67 710.37 1449.9 708.1 1451.93 705.55L1453.32 717.6H1479.52V556H1450.48V614.09V614.1ZM1442.9 692.57C1439.46 694.96 1435.04 696.15 1429.64 696.15C1424.24 696.15 1419.64 694.62 1416.28 691.57C1412.91 688.52 1410.49 684.42 1409.02 679.26C1407.55 674.1 1406.81 668.37 1406.81 662.06V659.85C1406.81 653.33 1407.56 647.45 1409.07 642.23C1410.58 637.01 1413.03 632.87 1416.43 629.82C1419.83 626.77 1424.3 625.24 1429.84 625.24C1433.84 625.24 1437.31 625.92 1440.26 627.29C1443.21 628.66 1445.68 630.6 1447.68 633.13C1448.73 634.46 1449.66 635.94 1450.47 637.56V683.6C1448.61 687.36 1446.09 690.36 1442.89 692.58L1442.9 692.57Z" fill="#FFFAF3"/>
<path d="M1546.92 681.86L1524.67 603.77H1494.48L1533.3 717.61H1541.82H1551.82H1560.34L1599.06 603.77H1568.86L1546.92 681.86Z" fill="#FFFAF3"/>
<path d="M1690.29 609.24C1682.29 604.19 1672.54 601.66 1661.04 601.66C1649.54 601.66 1640.12 604.19 1632.16 609.24C1624.2 614.29 1618.12 621.18 1613.91 629.91C1609.7 638.64 1607.6 648.55 1607.6 659.63V661.84C1607.6 672.85 1609.7 682.74 1613.91 691.51C1618.12 700.28 1624.22 707.17 1632.22 712.18C1640.22 717.2 1649.89 719.7 1661.26 719.7C1672.63 719.7 1682.39 717.19 1690.35 712.18C1698.31 707.17 1704.38 700.27 1708.55 691.51C1712.72 682.74 1714.81 672.85 1714.81 661.84V659.63C1714.81 648.55 1712.72 638.64 1708.55 629.91C1704.38 621.18 1698.29 614.29 1690.3 609.24H1690.29ZM1685.87 661.84C1685.87 668.15 1685.04 673.94 1683.4 679.2C1681.75 684.46 1679.12 688.65 1675.51 691.77C1671.9 694.89 1667.15 696.45 1661.25 696.45C1655.35 696.45 1650.61 694.89 1646.99 691.77C1643.38 688.65 1640.75 684.46 1639.1 679.2C1637.45 673.94 1636.63 668.15 1636.63 661.84V659.63C1636.63 653.39 1637.44 647.64 1639.05 642.38C1640.66 637.12 1643.27 632.89 1646.89 629.7C1650.5 626.51 1655.22 624.91 1661.04 624.91C1666.86 624.91 1671.89 626.51 1675.51 629.7C1679.12 632.89 1681.75 637.12 1683.4 642.38C1685.05 647.64 1685.87 653.39 1685.87 659.63V661.84Z" fill="#FFFAF3"/>
<path d="M1761.27 642.54C1762.5 637.32 1764.76 633.07 1768.06 629.81C1771.36 626.55 1776.09 624.92 1782.26 624.92C1786.54 624.92 1790.17 625.85 1793.15 627.71C1796.13 629.57 1798.43 632.08 1800.04 635.23C1801.65 638.39 1802.53 641.86 1802.67 645.65H1829.81C1829.74 636.74 1827.71 628.99 1823.71 622.4C1819.71 615.81 1814.21 610.71 1807.19 607.09C1800.18 603.48 1792 601.67 1782.68 601.67C1771.04 601.67 1761.36 604.23 1753.64 609.35C1745.92 614.47 1740.14 621.38 1736.28 630.08C1732.42 638.78 1730.49 648.46 1730.49 659.12V662.28C1730.49 672.94 1732.42 682.62 1736.28 691.32C1740.14 700.02 1745.92 706.93 1753.64 712.05C1761.35 717.17 1771.07 719.73 1782.78 719.73C1791.55 719.73 1799.44 717.94 1806.45 714.36C1813.46 710.78 1819.09 705.91 1823.34 699.74C1827.58 693.57 1829.74 686.55 1829.81 678.7H1802.67C1802.53 682.21 1801.58 685.31 1799.83 688.01C1798.08 690.71 1795.69 692.8 1792.68 694.27C1789.66 695.74 1786.23 696.48 1782.37 696.48C1776.13 696.48 1771.34 694.87 1768.01 691.64C1764.68 688.41 1762.42 684.21 1761.22 679.02C1760.03 673.83 1759.43 668.25 1759.43 662.29V659.13C1759.43 653.31 1760.04 647.79 1761.27 642.56V642.54Z" fill="#FFFAF3"/>
<path d="M1940.1 690.36V641.44C1940.1 632.6 1938.15 625.24 1934.26 619.35C1930.37 613.46 1925 609.04 1918.16 606.09C1911.32 603.14 1903.55 601.67 1894.86 601.67C1885.18 601.67 1876.75 603.32 1869.56 606.61C1862.37 609.91 1856.81 614.27 1852.89 619.71C1848.96 625.15 1847 631.09 1847 637.54H1875.93C1875.93 634.59 1876.63 632.07 1878.03 629.96C1879.43 627.86 1881.45 626.21 1884.08 625.02C1886.71 623.83 1889.78 623.23 1893.29 623.23C1899.39 623.23 1903.88 624.86 1906.76 628.12C1909.64 631.38 1911.07 635.75 1911.07 641.22V648.06H1896.87C1879.76 648.06 1866.73 651.32 1857.79 657.85C1848.85 664.37 1844.38 673.63 1844.38 685.62C1844.38 692.21 1846.08 698.09 1849.48 703.24C1852.88 708.4 1857.51 712.43 1863.37 715.34C1869.23 718.25 1875.8 719.71 1883.1 719.71C1888.78 719.71 1893.78 718.83 1898.09 717.08C1902.4 715.33 1906.09 713.08 1909.14 710.35C1910.28 709.33 1911.32 708.27 1912.3 707.19C1913 711.34 1913.99 714.82 1915.29 717.61H1944.64V715.82C1943.17 712.87 1942.04 709.4 1941.27 705.4C1940.5 701.4 1940.11 696.39 1940.11 690.36H1940.1ZM1901.59 694.46C1898.08 696.35 1893.94 697.3 1889.18 697.3C1884.42 697.3 1880.32 695.97 1877.55 693.3C1874.78 690.63 1873.39 687.3 1873.39 683.3C1873.39 678.04 1875.4 673.73 1879.44 670.36C1883.47 666.99 1889.73 665.31 1898.22 665.31H1911.05V685.4C1910.68 686.09 1910.24 686.79 1909.73 687.51C1907.8 690.25 1905.08 692.56 1901.58 694.45L1901.59 694.46Z" fill="#FFFAF3"/>
<path d="M1991.41 642.54C1992.64 637.32 1994.9 633.07 1998.2 629.81C2001.5 626.55 2006.23 624.92 2012.4 624.92C2016.68 624.92 2020.31 625.85 2023.29 627.71C2026.27 629.57 2028.57 632.08 2030.18 635.23C2031.79 638.39 2032.67 641.86 2032.81 645.65H2059.95C2059.88 636.74 2057.85 628.99 2053.85 622.4C2049.85 615.81 2044.35 610.71 2037.33 607.09C2030.32 603.48 2022.14 601.67 2012.82 601.67C2001.18 601.67 1991.5 604.23 1983.78 609.35C1976.06 614.47 1970.28 621.38 1966.42 630.08C1962.56 638.78 1960.63 648.46 1960.63 659.12V662.28C1960.63 672.94 1962.56 682.62 1966.42 691.32C1970.28 700.02 1976.06 706.93 1983.78 712.05C1991.49 717.17 2001.21 719.73 2012.92 719.73C2021.69 719.73 2029.58 717.94 2036.59 714.36C2043.6 710.78 2049.23 705.91 2053.48 699.74C2057.72 693.57 2059.88 686.55 2059.95 678.7H2032.81C2032.67 682.21 2031.72 685.31 2029.97 688.01C2028.22 690.71 2025.83 692.8 2022.82 694.27C2019.8 695.74 2016.37 696.48 2012.51 696.48C2006.27 696.48 2001.48 694.87 1998.15 691.64C1994.82 688.41 1992.56 684.21 1991.36 679.02C1990.17 673.83 1989.57 668.25 1989.57 662.29V659.13C1989.57 653.31 1990.18 647.79 1991.41 642.56V642.54Z" fill="#FFFAF3"/>
<path d="M2109.52 603.77H2080.48V717.6H2109.52V603.77Z" fill="#FFFAF3"/>
<path d="M2094.9 559.06C2089.92 559.06 2085.97 560.5 2083.06 563.37C2080.15 566.25 2078.69 569.86 2078.69 574.21C2078.69 578.56 2080.14 582.07 2083.06 584.94C2085.97 587.82 2089.91 589.25 2094.9 589.25C2099.89 589.25 2103.95 587.81 2106.89 584.94C2109.84 582.06 2111.31 578.49 2111.31 574.21C2111.31 569.93 2109.84 566.25 2106.89 563.37C2103.94 560.49 2099.95 559.06 2094.9 559.06Z" fill="#FFFAF3"/>
<path d="M2228.74 705.4C2227.97 701.4 2227.58 696.39 2227.58 690.36V641.44C2227.58 632.6 2225.63 625.24 2221.74 619.35C2217.85 613.46 2212.48 609.04 2205.64 606.09C2198.8 603.14 2191.03 601.67 2182.34 601.67C2172.66 601.67 2164.23 603.32 2157.04 606.61C2149.85 609.91 2144.29 614.27 2140.37 619.71C2136.44 625.15 2134.48 631.09 2134.48 637.54H2163.41C2163.41 634.59 2164.11 632.07 2165.51 629.96C2166.91 627.86 2168.93 626.21 2171.56 625.02C2174.19 623.83 2177.26 623.23 2180.77 623.23C2186.87 623.23 2191.36 624.86 2194.24 628.12C2197.12 631.38 2198.55 635.75 2198.55 641.22V648.06H2184.35C2167.24 648.06 2154.21 651.32 2145.27 657.85C2136.33 664.37 2131.86 673.63 2131.86 685.62C2131.86 692.21 2133.56 698.09 2136.96 703.24C2140.36 708.4 2144.99 712.43 2150.85 715.34C2156.71 718.25 2163.28 719.71 2170.58 719.71C2176.26 719.71 2181.26 718.83 2185.57 717.08C2189.88 715.33 2193.57 713.08 2196.62 710.35C2197.76 709.33 2198.8 708.27 2199.78 707.19C2200.48 711.34 2201.47 714.82 2202.77 717.61H2232.12V715.82C2230.65 712.87 2229.52 709.4 2228.75 705.4H2228.74ZM2189.08 694.46C2185.57 696.35 2181.43 697.3 2176.67 697.3C2171.91 697.3 2167.81 695.97 2165.04 693.3C2162.27 690.63 2160.88 687.3 2160.88 683.3C2160.88 678.04 2162.89 673.73 2166.93 670.36C2170.96 666.99 2177.22 665.31 2185.71 665.31H2198.54V685.4C2198.17 686.09 2197.73 686.79 2197.22 687.51C2195.29 690.25 2192.57 692.56 2189.07 694.45L2189.08 694.46Z" fill="#FFFAF3"/>
</g>
<g clip-path="url(#clip2_7_1602)">
<path d="M1151.99 720H1079.78C1068.49 720 1057.34 719.34 1046.39 718.06C1000.33 712.72 957.592 696.44 920.782 671.89C875.792 641.89 839.673 599.51 817.223 549.58L692.094 272.82C678.174 239.16 670.494 202.23 670.494 163.5C670.494 102.66 687.684 46.28 719.994 0L993.961 602.17C1009.54 636.41 1033.66 666.21 1064.43 687.85C1083.99 701.61 1104.82 711.31 1124.7 716.48C1133.85 718.86 1142.28 719.61 1152 720H1151.99Z" fill="#FFFAF3"/>
<path d="M160.939 664.89H160.929C153.199 650.31 148.819 633.66 148.819 616C148.819 614.84 148.839 613.69 148.879 612.54C149.319 599.03 149.359 593.6 152.999 576C144.689 605.06 138.529 616.19 138.529 616.19C111.399 676.51 69.8394 718.78 0 720H251.998C245.588 719.79 236.188 718.99 230.128 717.66C200.128 711.07 174.988 691.4 160.939 664.9V664.89Z" fill="#FFFAF3"/>
<path d="M800.993 720H377.997C384.407 719.79 389.587 718.99 395.646 717.66C425.646 711.07 450.786 691.4 464.836 664.9H464.846C472.576 650.32 476.956 633.67 476.956 616.01C476.956 614.85 476.936 613.7 476.896 612.55C476.456 599.04 473.456 586.17 468.356 574.43C467.996 573.58 332.007 272.83 332.007 272.83L331.967 272.73C318.067 239.1 310.407 202.2 310.407 163.51C310.407 102.67 327.687 46.28 359.997 0L640.244 616.19C668.334 678.34 730.284 720.01 800.993 720Z" fill="#FFFAF3"/>
</g>
</g>
<defs>
<clipPath id="clip0_7_1602">
<rect width="2231" height="720" fill="white"/>
</clipPath>
<clipPath id="clip1_7_1602">
<rect width="1007" height="576" fill="white" transform="translate(1225 144)"/>
</clipPath>
<clipPath id="clip2_7_1602">
<rect width="1152" height="720" fill="white"/>
</clipPath>
</defs>
</svg>
